<svg width="208" height="207" xmlns="http://www.w3.org/2000/svg" xmlns:xlink="http://www.w3.org/1999/xlink" overflow="hidden"><defs><clipPath id="clip0"><rect x="433" y="196" width="208" height="207"/></clipPath></defs><g clip-path="url(#clip0)" transform="translate(-433 -196)"><path d="M434 264.892 434 287.892 434 310.892 434 379.892C434 392.541 444.247 402.892 456.889 402.892L617.111 402.892C629.757 402.892 640 392.541 640 379.892L640 310.892 640 287.892 640 264.892 434 264.892Z" fill="#3B77F7" fill-rule="evenodd"/><path d="M456.889 197C444.247 197 434 207.218 434 219.824L434 242.647 434 265.471 434 276.882 434 299.706 434 368.177C434 380.787 444.247 391 456.889 391L617.111 391C629.757 391 640 380.787 640 368.177L640 299.706 640 276.882 640 265.471 640 242.647 640 231.235 605.667 197 594.222 197 571.333 197 456.889 197Z" fill="#3B77F7" fill-rule="evenodd"/><path d="M468 197 468 208.333 468 219.667 468 242.333C468 254.852 478.297 265 491 265L502.5 265 548.5 265 571.5 265 583 265C595.708 265 606 254.852 606 242.333L606 221.437 606 219.667 606 208.333 606 197 468 197Z" fill="#3B77F7" fill-rule="evenodd"/><path d="M491 310.892C478.297 310.892 468 321.178 468 333.749L468 354.32 468 390.892 606 390.892 606 354.32 606 333.749C606 321.178 595.708 310.892 583 310.892L548.5 310.892 491 310.892Z" fill="#ECF0F1" fill-rule="evenodd"/><path d="M468 390.887 606 390.887 606 402.887 468 402.887Z" fill="#BDC3C7" fill-rule="evenodd"/><path d="M480 196.893 480 208.293 480 231.093C480 243.632 490.208 253.893 502.8 253.893L514.2 253.893 559.8 253.893 571.2 253.893C583.797 253.893 594 243.632 594 231.093L594 209.432 594 208.293 594 196.893 480 196.893Z" fill="#ECF0F1" fill-rule="evenodd"/><path d="M491 208 491 230.667C491 236.926 496.149 242 502.5 242L514 242 525.5 242C531.848 242 537 236.926 537 230.667L537 208 514 208 491 208Z" fill="#95A5A6" fill-rule="evenodd"/><path d="M491 334 583 334 583 345 491 345Z" fill="#BDC3C7" fill-rule="evenodd"/><path d="M491 356.896 583 356.896 583 367.897 491 367.897Z" fill="#BDC3C7" fill-rule="evenodd"/><path d="M491 196.896 537 196.896 537 207.897 491 207.897Z" fill="#BDC3C7" fill-rule="evenodd"/></g></svg>