<?xml version="1.0" ?><!DOCTYPE svg  PUBLIC '-//W3C//DTD SVG 1.1//EN'  'http://www.w3.org/Graphics/SVG/1.1/DTD/svg11.dtd'><svg height="8.4666mm" style="shape-rendering:geometricPrecision; text-rendering:geometricPrecision; image-rendering:optimizeQuality; fill-rule:evenodd; clip-rule:evenodd" version="1.1" viewBox="0 0 847 847" width="8.4666mm" xml:space="preserve" xmlns="http://www.w3.org/2000/svg" xmlns:xlink="http://www.w3.org/1999/xlink"><defs><style type="text/css">
   <![CDATA[
    .str0 {stroke:#FFF7F7;stroke-width:16.93}
    .fil0 {fill:#3B77F7}
    .fil1 {fill:#FFF7F7}
   ]]>
  </style></defs><g id="Layer_x0020_1"><circle class="fil0" cx="423" cy="423" r="398"/><path class="fil1 str0" d="M314 214c33,-18 71,-27 109,-27 131,0 237,106 237,236 0,131 -106,237 -237,237 -158,0 -273,-155 -225,-307 9,-30 53,-16 44,13 -38,123 54,247 181,247 105,0 190,-85 190,-190 0,-139 -147,-232 -274,-170l10 15c3,4 1,10 -3,13 -5,3 -76,6 -88,6 -7,1 -12,-7 -9,-14l37 -74c3,-4 9,-6 14,-4 4,2 11,15 14,19z"/></g></svg>