<svg width="96" height="77" xmlns="http://www.w3.org/2000/svg" xmlns:xlink="http://www.w3.org/1999/xlink" overflow="hidden"><defs><clipPath id="clip0"><rect x="431" y="226" width="96" height="77"/></clipPath></defs><g clip-path="url(#clip0)" transform="translate(-431 -226)"><path d="M517.01 227C521.976 227 526 234.095 526 242.847L526 286.152C526 294.905 521.976 302 517.01 302L439.99 302C435.025 302 431 294.905 431 286.152L431 242.847C431 234.095 435.025 227 439.99 227Z" fill="#3B77F7" fill-rule="evenodd"/><path d="M492 264 478.438 253.999 465 244 465 264 465 284 478.438 274Z" stroke="#FFF7F7" stroke-width="5.57858" stroke-linejoin="round" stroke-miterlimit="10" fill="#3B77F7" fill-rule="evenodd"/><rect x="448" y="239" width="61" height="51" fill="#3B77F7"/><path d="M460 247.833C460 246.821 460.821 246 461.833 246L469.167 246C470.179 246 471 246.821 471 247.833L471 280.167C471 281.179 470.179 282 469.167 282L461.833 282C460.821 282 460 281.179 460 280.167Z" fill="#FFFFFF" fill-rule="evenodd"/><path d="M486 247.833C486 246.821 486.821 246 487.833 246L495.167 246C496.179 246 497 246.821 497 247.833L497 280.167C497 281.179 496.179 282 495.167 282L487.833 282C486.821 282 486 281.179 486 280.167Z" fill="#FFFFFF" fill-rule="evenodd"/></g></svg>